<svg preserveAspectRatio="xMidYMid meet" viewBox="0 30.492 338.31600000000003 333.23400000000004" xmlns="http://www.w3.org/2000/svg" version="1.0" style="max-height: 500px" width="338.31600000000003" height="333.23400000000004">

<g stroke="none" fill="white" transform="translate(0.000000,403.000000) scale(0.100000,-0.100000)">
<path d="M1568 3430 c-248 -61 -450 -265 -592 -598 -38 -89 -91 -259 -102&#10;-329 l-7 -43 266 0 266 0 5 43 c48 399 102 621 179 733 78 114 151 94 222 -61&#10;55 -118 101 -305 127 -512 l11 -93 262 0 262 0 -17 63 c-66 233 -175 438 -309&#10;580 -118 124 -231 190 -382 222 -87 18 -95 18 -191 -5z"/>
<path d="M365 2364 c-48 -25 -71 -51 -101 -117 -25 -55 -29 -75 -32 -188 -7&#10;-243 60 -379 188 -379 82 0 134 50 166 159 16 52 15 55 -2 68 -27 20 -32 17&#10;-45 -29 -17 -65 -36 -96 -69 -113 -115 -60 -202 81 -187 303 10 146 46 216&#10;119 231 64 14 114 -24 132 -101 7 -29 20 -34 45 -19 12 8 13 16 2 53 -35 119&#10;-130 177 -216 132z"/>
<path d="M690 2030 l0 -340 25 0 25 0 0 340 0 340 -25 0 -25 0 0 -340z"/>
<path d="M810 2330 l0 -40 70 0 70 0 0 -300 0 -300 30 0 30 0 0 300 0 300 70&#10;0 70 0 0 40 0 40 -170 0 -170 0 0 -40z"/>
<path d="M1170 2366 c0 -5 21 -56 126 -302 34 -80 34 -83 34 -228 l0 -146 30&#10;0 30 0 0 150 0 149 80 182 c44 100 80 186 80 191 0 4 -13 8 -28 8 -27 0 -31&#10;-6 -93 -159 -35 -88 -66 -158 -68 -156 -1 2 -31 73 -65 157 -61 150 -63 153&#10;-94 156 -18 2 -32 1 -32 -2z"/>
<path d="M1610 2030 l0 -340 135 0 136 0 -5 28 c-2 15 -5 33 -5 40 -1 9 -29&#10;12 -106 12 l-105 0 0 300 0 300 -25 0 -25 0 0 -340z"/>
<path d="M2047 2298 c-20 -89 -136 -566 -143 -590 -4 -14 1 -18 24 -18 28 0&#10;29 1 51 99 20 85 26 100 45 103 25 5 155 2 161 -4 2 -2 14 -46 27 -98 24 -93&#10;25 -95 55 -98 l31 -3 -60 233 c-33 128 -72 280 -87 338 -27 103 -28 105 -57&#10;108 -30 3 -31 2 -47 -70z m116 -313 c2 -18 -4 -20 -66 -20 -38 0 -70 2 -72 5&#10;-2 3 9 59 25 125 15 66 31 138 35 160 7 37 10 30 41 -105 19 -80 36 -154 37&#10;-165z"/>
<path d="M2350 2031 l0 -341 25 0 25 0 1 263 0 262 24 -50 c14 -27 54 -122 91&#10;-210 110 -266 109 -265 138 -265 l26 0 0 340 0 340 -25 0 -25 0 -1 -267 c0&#10;-173 -4 -261 -10 -248 -5 11 -55 130 -112 265 -96 227 -106 245 -130 248 l-27&#10;3 0 -340z"/>
<path d="M2780 2030 l0 -340 101 0 c85 0 107 3 139 21 52 30 85 94 106 208 28&#10;156 -3 330 -73 404 -35 36 -79 47 -185 47 l-88 0 0 -340z m246 225 c38 -47 49&#10;-100 48 -225 0 -133 -14 -192 -54 -232 -26 -26 -34 -28 -107 -28 l-78 0 3 261&#10;3 261 80 -4 c76 -3 83 -5 105 -33z"/>
<path d="M870 1579 c0 -31 36 -167 71 -266 93 -264 243 -477 416 -593 170&#10;-114 343 -135 522 -65 237 92 451 375 564 743 l25 82 -259 0 c-199 0 -260 -3&#10;-263 -12 -2 -7 -12 -71 -21 -143 -34 -262 -110 -499 -184 -573 -131 -131 -265&#10;153 -327 696 l-17 152 -264 0 c-260 0 -263 0 -263 -21z"/>
</g>
</svg>